<svg xmlns="http://www.w3.org/2000/svg" width="22.679" height="17.899" viewBox="0 0 22.679 17.899">
  <g id="bun-icon" transform="translate(1300.497 -1437.678)">
    <path id="Path_590" data-name="Path 590" d="M-1289.188,1546.149h-7.382a3.876,3.876,0,0,1-3.9-3.467,5.149,5.149,0,0,1,1.08-3.616,9.4,9.4,0,0,1,3.883-2.973,14.458,14.458,0,0,1,4.525-1.177,17.654,17.654,0,0,1,3.5-.032,13.534,13.534,0,0,1,6.5,2.217,7.122,7.122,0,0,1,2.757,3.24,4.139,4.139,0,0,1-.374,4.216,3.715,3.715,0,0,1-3.113,1.589C-1284.2,1546.155-1286.694,1546.149-1289.188,1546.149Zm-7.726-8.306a6.917,6.917,0,0,0-1.971,1.937,4.34,4.34,0,0,0-.782,2.614,3.088,3.088,0,0,0,3.15,2.945q7.356,0,14.712,0a3.517,3.517,0,0,0,.919-.131,3.108,3.108,0,0,0,2.111-3.906,6.227,6.227,0,0,0-2.787-3.576.389.389,0,0,0-.237-.051,3.232,3.232,0,0,0-2.819,2.458,3.44,3.44,0,0,1-.1.366,1.211,1.211,0,0,1-1.469.754,1.2,1.2,0,0,1-.872-1.378,5.474,5.474,0,0,1,1.157-2.519c.33-.4.682-.786,1-1.148a2.7,2.7,0,0,0-.76-.14,3.4,3.4,0,0,0-1.048.256,4.359,4.359,0,0,0-2.806,3.489,1.233,1.233,0,0,1-1.381,1.071,1.222,1.222,0,0,1-1.033-1.409,6.929,6.929,0,0,1,1.422-3.247c.138-.174.285-.341.467-.559-.326.026-.591.051-.857.068a3.782,3.782,0,0,0-2.084.738,4.455,4.455,0,0,0-1.8,2.938,1.215,1.215,0,0,1-1.45,1.063,1.175,1.175,0,0,1-.943-1.453C-1297.1,1538.633-1297,1538.25-1296.915,1537.843Zm9.43-2.117c-.385-.027-.77-.061-1.155-.077a.406.406,0,0,0-.247.091,6.036,6.036,0,0,0-2.2,3.66c-.078.407.037.632.318.671.255.036.416-.137.484-.524a5.144,5.144,0,0,1,.865-2.077A6.151,6.151,0,0,1-1287.485,1535.726Zm4.656,1.274c-.217-.094-.474-.195-.721-.316a.37.37,0,0,0-.4.025,4.8,4.8,0,0,0-2.029,2.373,5.615,5.615,0,0,0-.268.942.384.384,0,0,0,.306.455.411.411,0,0,0,.487-.3,1.19,1.19,0,0,0,.029-.122,3.709,3.709,0,0,1,1.206-2.109A15.719,15.719,0,0,1-1282.828,1537Zm-11.455-.521c-.42.183-.842.361-1.258.553a.452.452,0,0,0-.183.192,5.952,5.952,0,0,0-.658,2,.366.366,0,0,0,.3.448.388.388,0,0,0,.487-.323A5.889,5.889,0,0,1-1294.283,1536.479Z" transform="translate(0 -90.574)" fill="#282828"/>
    <path id="Path_591" data-name="Path 591" d="M-1142.387,1438.932a1.657,1.657,0,0,1-.433,1.112.806.806,0,0,0-.038,1.194.4.4,0,0,1-.032.585.407.407,0,0,1-.585-.063,1.618,1.618,0,0,1-.069-2.127c.452-.559.461-.72.071-1.31a.4.4,0,0,1,.064-.546.39.39,0,0,1,.548.028A1.588,1.588,0,0,1-1142.387,1438.932Z" transform="translate(-146.014)" fill="#282828"/>
    <path id="Path_592" data-name="Path 592" d="M-1078.046,1458.669a1.647,1.647,0,0,1,.43-1.112.807.807,0,0,0,.042-1.194.4.4,0,0,1,.027-.586.4.4,0,0,1,.585.058,1.615,1.615,0,0,1,.042,2.165.82.82,0,0,0-.06,1.252.4.4,0,0,1-.042.566.4.4,0,0,1-.567-.041A1.587,1.587,0,0,1-1078.046,1458.669Z" transform="translate(-207.429 -16.784)" fill="#282828"/>
    <path id="Path_593" data-name="Path 593" d="M-1209.827,1464.63a1.64,1.64,0,0,1,.426-1.076.805.805,0,0,0,.051-1.194.4.4,0,0,1,.017-.587.409.409,0,0,1,.6.067,1.616,1.616,0,0,1,.034,2.146c-.419.5-.429.725-.053,1.271a.4.4,0,0,1-.047.548.4.4,0,0,1-.568-.031A1.593,1.593,0,0,1-1209.827,1464.63Z" transform="translate(-84.547 -22.371)" fill="#282828"/>
    <path id="Path_594" data-name="Path 594" d="M-1267.132,1656.219q-3.273,0-6.546,0a5.28,5.28,0,0,1-2.916-.842c-.265-.17-.342-.4-.2-.61a.413.413,0,0,1,.62-.078,4.7,4.7,0,0,0,2.612.723q6.445-.011,12.89,0a4.659,4.659,0,0,0,2.546-.69.412.412,0,0,1,.617.094c.129.212.058.431-.2.593a5.243,5.243,0,0,1-2.875.81Q-1263.859,1656.216-1267.132,1656.219Z" transform="translate(-22.036 -202.262)" fill="#282828"/>
  </g>
</svg>
